<?xml version="1.0" encoding="UTF-8"?>
<svg class="h2-svg" width="700pt"  height="700pt" version="1.1" viewBox="0 0 700 700" xmlns="http://www.w3.org/2000/svg" xmlns:xlink="http://www.w3.org/1999/xlink"> 

<style> 
   .h2-svg { 
    fill:#a57d38;
   } 
  </style>



 <defs>
  <symbol id="m" overflow="visible">
   <path d="m29.312-1.75c-1.5117 0.78125-3.0898 1.3711-4.7344 1.7656-1.6367 0.40625-3.3398 0.60938-5.1094 0.60938-5.3125 0-9.5273-1.4844-12.641-4.4531-3.1055-2.9688-4.6562-7-4.6562-12.094s1.5508-9.125 4.6562-12.094c3.1133-2.9688 7.3281-4.4531 12.641-4.4531 1.7695 0 3.4727 0.19922 5.1094 0.59375 1.6445 0.39844 3.2227 0.99219 4.7344 1.7812v6.5938c-1.5312-1.0391-3.0391-1.8008-4.5156-2.2812-1.4805-0.48828-3.0391-0.73438-4.6719-0.73438-2.9375 0-5.2461 0.94531-6.9219 2.8281-1.6797 1.875-2.5156 4.4648-2.5156 7.7656 0 3.293 0.83594 5.8828 2.5156 7.7656 1.6758 1.875 3.9844 2.8125 6.9219 2.8125 1.6328 0 3.1914-0.23828 4.6719-0.71875 1.4766-0.48828 2.9844-1.2539 4.5156-2.2969z"/>
  </symbol>
  <symbol id="h" overflow="visible">
   <path d="m21.453-17.406c-0.67969-0.3125-1.3516-0.53906-2.0156-0.6875-0.65625-0.15625-1.3203-0.23438-1.9844-0.23438-1.9688 0-3.4844 0.63281-4.5469 1.8906-1.0547 1.2617-1.5781 3.0703-1.5781 5.4219v11.016h-7.6562v-23.922h7.6562v3.9219c0.97656-1.5625 2.1016-2.7031 3.375-3.4219 1.2812-0.71875 2.8125-1.0781 4.5938-1.0781 0.25 0 0.52344 0.011719 0.82812 0.03125 0.30078 0.023438 0.73438 0.070312 1.2969 0.14062z"/>
  </symbol>
  <symbol id="c" overflow="visible">
   <path d="m27.562-12.031v2.1875h-17.891c0.1875 1.793 0.83203 3.1367 1.9375 4.0312 1.1133 0.89844 2.6719 1.3438 4.6719 1.3438 1.6016 0 3.25-0.23438 4.9375-0.70312 1.6875-0.47656 3.4219-1.2031 5.2031-2.1719v5.8906c-1.8047 0.6875-3.6094 1.2031-5.4219 1.5469-1.8125 0.35156-3.6211 0.53125-5.4219 0.53125-4.3359 0-7.7031-1.0977-10.109-3.2969-2.3984-2.207-3.5938-5.2969-3.5938-9.2656 0-3.9062 1.1758-6.9727 3.5312-9.2031 2.3633-2.2383 5.6094-3.3594 9.7344-3.3594 3.7578 0 6.7695 1.1367 9.0312 3.4062 2.2578 2.2617 3.3906 5.2812 3.3906 9.0625zm-7.8594-2.5312c0-1.457-0.42969-2.6289-1.2812-3.5156-0.84375-0.89453-1.9492-1.3438-3.3125-1.3438-1.4922 0-2.6992 0.41797-3.625 1.25-0.91797 0.83594-1.4922 2.0391-1.7188 3.6094z"/>
  </symbol>
  <symbol id="b" overflow="visible">
   <path d="m14.391-10.766c-1.5938 0-2.793 0.27344-3.5938 0.8125-0.80469 0.54297-1.2031 1.3398-1.2031 2.3906 0 0.96875 0.32031 1.7305 0.96875 2.2812 0.64453 0.54297 1.5469 0.8125 2.7031 0.8125 1.4375 0 2.6445-0.51562 3.625-1.5469 0.98828-1.0312 1.4844-2.3203 1.4844-3.875v-0.875zm11.688-2.8906v13.656h-7.7031v-3.5469c-1.0312 1.4492-2.1875 2.5078-3.4688 3.1719s-2.8398 1-4.6719 1c-2.4805 0-4.4961-0.72266-6.0469-2.1719-1.543-1.4453-2.3125-3.3203-2.3125-5.625 0-2.8125 0.96094-4.8672 2.8906-6.1719 1.9375-1.3125 4.9688-1.9688 9.0938-1.9688h4.5156v-0.60938c0-1.207-0.48047-2.0938-1.4375-2.6562-0.94922-0.5625-2.4375-0.84375-4.4688-0.84375-1.6367 0-3.1562 0.16797-4.5625 0.5-1.4062 0.32422-2.7188 0.8125-3.9375 1.4688v-5.8281c1.6445-0.40625 3.2891-0.70703 4.9375-0.90625 1.6562-0.20703 3.3047-0.3125 4.9531-0.3125 4.3203 0 7.4375 0.85547 9.3438 2.5625 1.9141 1.6992 2.875 4.4609 2.875 8.2812z"/>
  </symbol>
  <symbol id="g" overflow="visible">
   <path d="m12.031-30.719v6.7969h7.875v5.4688h-7.875v10.141c0 1.1172 0.21875 1.8711 0.65625 2.2656 0.4375 0.38672 1.3125 0.57812 2.625 0.57812h3.9375v5.4688h-6.5625c-3.0234 0-5.1641-0.62891-6.4219-1.8906-1.2617-1.2578-1.8906-3.3984-1.8906-6.4219v-10.141h-3.7969v-5.4688h3.7969v-6.7969z"/>
  </symbol>
  <symbol id="f" overflow="visible">
   <path d="m19.953-20.422v-12.812h7.6875v33.234h-7.6875v-3.4531c-1.0547 1.4062-2.2148 2.4375-3.4844 3.0938-1.2734 0.65625-2.7422 0.98438-4.4062 0.98438-2.9492 0-5.3711-1.1719-7.2656-3.5156-1.8867-2.3438-2.8281-5.3594-2.8281-9.0469s0.94141-6.7031 2.8281-9.0469c1.8945-2.3438 4.3164-3.5156 7.2656-3.5156 1.6562 0 3.1172 0.33594 4.3906 1 1.2812 0.65625 2.4453 1.6836 3.5 3.0781zm-5.0469 15.484c1.6445 0 2.8945-0.59766 3.75-1.7969 0.86328-1.1953 1.2969-2.9297 1.2969-5.2031 0-2.2812-0.43359-4.0195-1.2969-5.2188-0.85547-1.1953-2.1055-1.7969-3.75-1.7969-1.625 0-2.8711 0.60156-3.7344 1.7969-0.85547 1.1992-1.2812 2.9375-1.2812 5.2188 0 2.2734 0.42578 4.0078 1.2812 5.2031 0.86328 1.1992 2.1094 1.7969 3.7344 1.7969z"/>
  </symbol>
  <symbol id="e" overflow="visible">
   <path d="m16.406-4.9375c1.6328 0 2.8828-0.59766 3.75-1.7969 0.86328-1.1953 1.2969-2.9297 1.2969-5.2031 0-2.2812-0.43359-4.0195-1.2969-5.2188-0.86719-1.1953-2.1172-1.7969-3.75-1.7969-1.6367 0-2.8906 0.60547-3.7656 1.8125-0.875 1.1992-1.3125 2.9336-1.3125 5.2031 0 2.2617 0.4375 3.9961 1.3125 5.2031 0.875 1.1992 2.1289 1.7969 3.7656 1.7969zm-5.0781-15.484c1.0508-1.3945 2.2188-2.4219 3.5-3.0781 1.2812-0.66406 2.7539-1 4.4219-1 2.9453 0 5.3672 1.1719 7.2656 3.5156 1.8945 2.3438 2.8438 5.3594 2.8438 9.0469s-0.94922 6.7031-2.8438 9.0469c-1.8984 2.3438-4.3203 3.5156-7.2656 3.5156-1.668 0-3.1406-0.33594-4.4219-1s-2.4492-1.6914-3.5-3.0781v3.4531h-7.6562v-33.234h7.6562z"/>
  </symbol>
  <symbol id="a" overflow="visible">
   <path d="m0.53125-23.922h7.6562l6.4219 16.234 5.4688-16.234h7.6562l-10.062 26.188c-1.0117 2.6641-2.1953 4.5234-3.5469 5.5781-1.3438 1.0625-3.1211 1.5938-5.3281 1.5938h-4.4219v-5.0156h2.3906c1.3008 0 2.2422-0.21094 2.8281-0.625 0.59375-0.40625 1.0547-1.1484 1.3906-2.2188l0.20312-0.65625z"/>
  </symbol>
  <symbol id="d" overflow="visible">
   <path d="m4.0156-31.891h22.203v6.2188h-13.984v5.9375h13.141v6.2188h-13.141v7.2969h14.453v6.2188h-22.672z"/>
  </symbol>
  <symbol id="l" overflow="visible">
   <path d="m3.4219-9.3125v-14.609h7.6875v2.3906c0 1.293-0.011719 2.918-0.03125 4.875-0.011719 1.9609-0.015625 3.2656-0.015625 3.9219 0 1.9297 0.046875 3.3125 0.14062 4.1562 0.10156 0.84375 0.28125 1.4609 0.53125 1.8438 0.3125 0.5 0.71875 0.88672 1.2188 1.1562 0.50781 0.27344 1.0938 0.40625 1.75 0.40625 1.5938 0 2.8438-0.60938 3.75-1.8281 0.91406-1.2266 1.375-2.9297 1.375-5.1094v-11.812h7.6406v23.922h-7.6406v-3.4531c-1.1562 1.3867-2.3828 2.4141-3.6719 3.0781-1.2812 0.66406-2.6992 1-4.25 1-2.7734 0-4.8828-0.84766-6.3281-2.5469-1.4375-1.6953-2.1562-4.1602-2.1562-7.3906z"/>
  </symbol>
  <symbol id="k" overflow="visible">
   <path d="m23-23.172v6.2344c-1.0312-0.71875-2.0742-1.2422-3.125-1.5781-1.043-0.34375-2.125-0.51562-3.25-0.51562-2.1367 0-3.8047 0.625-5 1.875-1.1875 1.2422-1.7812 2.9805-1.7812 5.2188 0 2.2305 0.59375 3.9688 1.7812 5.2188 1.1953 1.25 2.8633 1.875 5 1.875 1.1953 0 2.332-0.17578 3.4062-0.53125 1.0703-0.36328 2.0625-0.89453 2.9688-1.5938v6.2656c-1.1875 0.4375-2.4023 0.76562-3.6406 0.98438-1.2305 0.22656-2.4648 0.34375-3.7031 0.34375-4.3125 0-7.6875-1.1094-10.125-3.3281s-3.6562-5.2969-3.6562-9.2344c0-3.9453 1.2188-7.0234 3.6562-9.2344 2.4375-2.2188 5.8125-3.3281 10.125-3.3281 1.25 0 2.4844 0.10938 3.7031 0.32812s2.4297 0.55469 3.6406 1z"/>
  </symbol>
  <symbol id="j" overflow="visible">
   <path d="m3.6719-33.234h7.6562v33.234h-7.6562z"/>
  </symbol>
  <symbol id="i" overflow="visible">
   <path d="m11.328-3.4531v12.547h-7.6562v-33.016h7.6562v3.5c1.0508-1.3945 2.2188-2.4219 3.5-3.0781 1.2812-0.66406 2.7539-1 4.4219-1 2.9453 0 5.3672 1.1719 7.2656 3.5156 1.8945 2.3438 2.8438 5.3594 2.8438 9.0469s-0.94922 6.7031-2.8438 9.0469c-1.8984 2.3438-4.3203 3.5156-7.2656 3.5156-1.668 0-3.1406-0.33594-4.4219-1s-2.4492-1.6914-3.5-3.0781zm5.0781-15.5c-1.6367 0-2.8906 0.60547-3.7656 1.8125-0.875 1.1992-1.3125 2.9336-1.3125 5.2031 0 2.2617 0.4375 3.9961 1.3125 5.2031 0.875 1.1992 2.1289 1.7969 3.7656 1.7969 1.6328 0 2.8828-0.59766 3.75-1.7969 0.86328-1.1953 1.2969-2.9297 1.2969-5.2031 0-2.2812-0.43359-4.0195-1.2969-5.2188-0.86719-1.1953-2.1172-1.7969-3.75-1.7969z"/>
  </symbol>
 </defs>
 <g>
  <path d="m577.5 236.25c24.125 0 43.75-19.625 43.75-43.75v-140c0-24.125-19.625-43.75-43.75-43.75h-175c-24.125 0-43.75 19.625-43.75 43.75v140c0 24.125 19.625 43.75 43.75 43.75h61.25v140.49c0 3.9805-0.91797 7.9609-2.668 11.531l-7.3398-36.68c-5.2539-26.266-28.508-45.34-55.312-45.34-12.23 0-22.18 9.957-22.18 22.18 0 4.3906 1.2852 8.6445 3.7266 12.301l9.0039 13.512c3.332 4.9961 5.4844 10.789 6.2305 16.746l6.1953 49.621c0.94531 7.543 3.8516 14.742 8.4102 20.816l18.934 25.238v14.586h-17.5v70h210v-70h-17.5v-15.434l12.879-25.762c3.0195-6.0391 4.6211-12.809 4.6211-19.566v-105.49c0-14.473-11.777-26.25-26.25-26.25-3.457 0-6.7383 0.70703-9.7656 1.9258-3.0195-11.156-13.133-19.426-25.234-19.426-3.457 0-6.7383 0.70703-9.7656 1.9258-3.0195-11.156-13.133-19.426-25.234-19.426-3.0781 0-6.0039 0.62891-8.75 1.6094v-19.109zm-175-17.5c-14.473 0-26.25-11.777-26.25-26.25v-140c0-14.473 11.777-26.25 26.25-26.25h175c14.473 0 26.25 11.777 26.25 26.25v140c0 14.473-11.777 26.25-26.25 26.25h-61.25v-18.242c2.1016 0.38281 4.2188 0.74219 6.3516 0.74219 9.3906 0 18.578-3.8047 25.219-10.449l12.18-12.18c5.6445-5.6445 8.75-13.141 8.75-21.121s-3.1055-15.488-8.75-21.121l-15.426-15.426c-4.6367-4.6484-10.816-7.2031-17.387-7.2031h-1.1562c-9.3633 0-17.789 5.207-21.98 13.59-1.207 2.4141-3.6367 3.9102-6.332 3.9102h-1.1562c-1.8906 0-3.668-0.73438-5.0039-2.0742l-8.2266-8.2266c-1.3477-1.3359-2.082-3.1133-2.082-5.0117v-1.1562c0-2.7031 1.4961-5.1289 3.9102-6.3359 8.3828-4.1875 13.59-12.617 13.59-21.977v-1.1562c0-6.5625-2.5547-12.738-7.2031-17.379l-15.426-15.434c-11.277-11.289-30.965-11.289-42.246 0l-12.18 12.18c-6.6406 6.6406-10.445 15.828-10.445 26.051 0 4.8555 0.97266 9.582 2.8867 14.043 12.145 28.332 31.289 52.676 55.746 71.066-3.7695 4.5508-6.1328 10.309-6.1328 16.66v26.25zm84.594-52.203c-25.199-17.012-44.871-40.645-56.875-68.672-0.96875-2.2656-1.4688-4.6797-1.4688-7.9766 0-4.7773 1.9414-9.4688 5.3203-12.844l12.18-12.184c4.6016-4.6016 12.898-4.6016 17.5 0l15.426 15.426c1.3398 1.3398 2.0742 3.1172 2.0742 5.0156v1.1562c0 2.7031-1.4961 5.1289-3.9102 6.3359-8.3828 4.1875-13.59 12.617-13.59 21.977v1.1562c0 6.5625 2.5547 12.738 7.2031 17.379l8.2266 8.2266c4.6328 4.6523 10.812 7.207 17.383 7.207h1.1562c9.3633 0 17.789-5.207 21.98-13.59 1.207-2.4141 3.6367-3.9102 6.332-3.9102h1.1562c1.8906 0 3.668 0.73438 5.0039 2.0742l15.438 15.426c2.3008 2.3008 3.6211 5.4961 3.6211 8.75s-1.3203 6.4492-3.6211 8.75l-12.18 12.18c-5.3633 5.3633-14.184 6.7969-20.965 3.4023l-0.75391-0.375c-4.1836-8.9492-13.215-15.207-23.73-15.207-0.99609 0-1.9414 0.18359-2.9062 0.29688zm116.66 367.2h-175v-35h175zm-78.75-262.5c4.8203 0 8.75 3.9297 8.75 8.75v70h17.5v-52.5c0-4.8281 3.9297-8.75 8.75-8.75s8.75 3.9219 8.75 8.75v52.5h17.5v-35c0-4.8281 3.9297-8.75 8.75-8.75s8.75 3.9219 8.75 8.75v105.49c0 4.0508-0.95312 8.1211-2.7734 11.742l-14.727 29.453v19.566h-140v-20.414l-22.426-29.898c-2.7305-3.6484-4.4805-7.9727-5.0469-12.496l-6.1953-49.621c-1.0859-8.6445-4.207-17.047-9.0391-24.281l-9.0039-13.512c-0.51562-0.76953-0.78906-1.6641-0.78906-2.5977 0-2.5781 2.1016-4.6797 4.6797-4.6797 18.48 0 34.527 13.152 38.148 31.273l11.246 56.227h21.332l7.4727-14.945c3.0195-6.0391 4.6211-12.809 4.6211-19.566v-184.24c0-4.8203 3.9297-8.75 8.75-8.75s8.75 3.9297 8.75 8.75v157.5h17.5v-70c0-4.8203 3.9297-8.75 8.75-8.75z"/>
  <path d="m297.5 288.75h-175c-24.125 0-43.75 19.625-43.75 43.75v140c0 24.125 19.625 43.75 43.75 43.75h175c24.125 0 43.75-19.625 43.75-43.75v-140c0-24.125-19.625-43.75-43.75-43.75zm26.25 183.75c0 14.473-11.777 26.25-26.25 26.25h-175c-14.473 0-26.25-11.777-26.25-26.25v-140c0-14.473 11.777-26.25 26.25-26.25h175c14.473 0 26.25 11.777 26.25 26.25z"/>
  <path d="m297.5 8.75h-175c-24.125 0-43.75 19.625-43.75 43.75v140c0 24.125 19.625 43.75 43.75 43.75h175c24.125 0 43.75-19.625 43.75-43.75v-140c0-24.125-19.625-43.75-43.75-43.75zm26.25 183.75c0 14.473-11.777 26.25-26.25 26.25h-175c-14.473 0-26.25-11.777-26.25-26.25v-140c0-14.473 11.777-26.25 26.25-26.25h175c14.473 0 26.25 11.777 26.25 26.25z"/>
  <path d="m210 43.75c-38.598 0-70 31.402-70 70v17.5c0 38.598 31.402 70 70 70v-17.5c-28.953 0-52.5-23.547-52.5-52.5v-17.5c0-28.953 23.547-52.5 52.5-52.5s52.5 23.547 52.5 52.5v43.75c0 4.8203-3.9297 8.75-8.75 8.75s-8.75-3.9297-8.75-8.75v-43.75c0-19.301-15.699-35-35-35s-35 15.699-35 35v17.5c0 19.301 15.699 35 35 35 6.5547 0 12.617-1.9258 17.867-5.0742 1.8125 12.73 12.672 22.574 25.883 22.574 14.473 0 26.25-11.777 26.25-26.25v-43.75c0-38.598-31.402-70-70-70zm0 105c-9.6523 0-17.5-7.8477-17.5-17.5v-17.5c0-9.6523 7.8477-17.5 17.5-17.5s17.5 7.8477 17.5 17.5v17.5c0 9.6523-7.8477 17.5-17.5 17.5z"/>
  <path d="m113.75 463.75h192.5v-122.5h-192.5zm67.078-44.203c8.4961 5.957 18.574 9.2031 29.172 9.2031s20.676-3.2461 29.172-9.2031l33.383 26.703h-125.11zm71.434-11.938 36.488-36.488v65.668zm-18.574-6.168c-12.652 12.645-34.719 12.645-47.371 0l-42.695-42.691h132.75zm-65.957 6.1602-36.48 29.191v-65.668z"/></g>
</svg>
